<svg xmlns="http://www.w3.org/2000/svg" width="64" height="64" viewBox="0 0 64 64">
  <style>
    path {
      fill: black;
    }
    @media (prefers-color-scheme: dark) {
      path { fill: white; }
    }
  </style>
  <g>
    <path fill-rule="evenodd" d="M31.996.1A31.9 31.9 0 0 0 .1 32.002 31.9 31.9 0 0 0 32.002 63.9 31.9 31.9 0 0 0 63.9 32H54v9c0 1.108-.892 2-2 2H12c-1.108 0-2-.892-2-2V23c0-1.108.892-2 2-2h40c1.108 0 2 .892 2 2v8.996l9.9-.002A31.9 31.9 0 0 0 31.996.1ZM13.818 22.918c-.254 0-.495.046-.714.13L32 32l18.896-8.951c-.219-.085-.46-.131-.714-.131zM12.1 24.051c-.06.163-.1.335-.1.517v14.864c0 .914.811 1.65 1.818 1.65h36.364c1.007 0 1.818-.736 1.818-1.65V32H36l-4 2zM36.002 32 52 31.996v-7.428c0-.182-.04-.354-.1-.517z"/>
  </g>
</svg>
